<svg xmlns="http://www.w3.org/2000/svg" xmlns:xlink="http://www.w3.org/1999/xlink" width="472" zoomAndPan="magnify" viewBox="0 0 354 358.49999" height="478" preserveAspectRatio="xMidYMid meet" version="1.0"><defs><g/><clipPath id="58bc9735ea"><path d="M 47.179688 49 L 306.691406 49 L 306.691406 309 L 47.179688 309 Z M 47.179688 49 " clip-rule="nonzero"/></clipPath><clipPath id="ef7d5b86ef"><path d="M 201.230469 65.847656 L 201.316406 66.074219 C 216.710938 106.855469 248.84375 139.085938 289.574219 154.605469 C 299.703125 158.464844 306.394531 168.179688 306.394531 179.015625 C 306.394531 189.851562 299.703125 199.566406 289.574219 203.425781 C 248.84375 218.949219 216.710938 251.179688 201.316406 291.957031 L 201.230469 292.183594 C 197.414062 302.289062 187.738281 308.980469 176.9375 308.980469 C 166.132812 308.980469 156.457031 302.289062 152.640625 292.183594 L 152.554688 291.957031 C 137.160156 251.179688 105.03125 218.949219 64.296875 203.425781 C 54.167969 199.566406 47.476562 189.851562 47.476562 179.015625 C 47.476562 168.179688 54.167969 158.464844 64.296875 154.605469 C 105.03125 139.085938 137.160156 106.855469 152.554688 66.074219 L 152.640625 65.847656 C 156.457031 55.742188 166.132812 49.050781 176.9375 49.050781 C 187.738281 49.050781 197.414062 55.742188 201.230469 65.847656 Z M 201.230469 65.847656 " clip-rule="nonzero"/></clipPath><clipPath id="469762e4fc"><path d="M 0.460938 0 L 259.539062 0 L 259.539062 260 L 0.460938 260 Z M 0.460938 0 " clip-rule="nonzero"/></clipPath><clipPath id="21c29be45b"><path d="M 154.230469 16.847656 L 154.316406 17.074219 C 169.710938 57.855469 201.84375 90.085938 242.574219 105.605469 C 252.703125 109.464844 259.394531 119.179688 259.394531 130.015625 C 259.394531 140.851562 252.703125 150.566406 242.574219 154.425781 C 201.84375 169.949219 169.710938 202.179688 154.316406 242.957031 L 154.230469 243.183594 C 150.414062 253.289062 140.738281 259.980469 129.9375 259.980469 C 119.132812 259.980469 109.457031 253.289062 105.640625 243.183594 L 105.554688 242.957031 C 90.160156 202.179688 58.03125 169.949219 17.296875 154.425781 C 7.167969 150.566406 0.476562 140.851562 0.476562 130.015625 C 0.476562 119.179688 7.167969 109.464844 17.296875 105.605469 C 58.03125 90.085938 90.160156 57.855469 105.554688 17.074219 L 105.640625 16.847656 C 109.457031 6.742188 119.132812 0.0507812 129.9375 0.0507812 C 140.738281 0.0507812 150.414062 6.742188 154.230469 16.847656 Z M 154.230469 16.847656 " clip-rule="nonzero"/></clipPath><clipPath id="91fbda53e6"><rect x="0" width="260" y="0" height="260"/></clipPath><clipPath id="e7bb31621d"><rect x="0" width="107" y="0" height="85"/></clipPath></defs><g clip-path="url(#58bc9735ea)"><g clip-path="url(#ef7d5b86ef)"><g transform="matrix(1, 0, 0, 1, 47, 49)"><g clip-path="url(#91fbda53e6)"><g clip-path="url(#469762e4fc)"><g clip-path="url(#21c29be45b)"><rect x="-124.88" width="509.76" fill="#f5f2f2" height="516.239985" y="-127.869998" fill-opacity="1"/></g></g></g></g></g></g><g transform="matrix(1, 0, 0, 1, 124, 141)"><g clip-path="url(#e7bb31621d)"><g fill="#004aad" fill-opacity="1"><g transform="translate(0.908362, 65.71212)"><g><path d="M 30.40625 -12.71875 C 29.882812 -12.75 29.421875 -12.820312 29.015625 -12.9375 C 28.609375 -13.050781 28.242188 -13.1875 27.921875 -13.34375 L 4.828125 -25.78125 C 4.660156 -25.84375 4.460938 -25.929688 4.234375 -26.046875 C 4.003906 -26.160156 3.765625 -26.296875 3.515625 -26.453125 L 3.0625 -26.796875 C 2.9375 -26.890625 2.90625 -26.9375 2.96875 -26.9375 C 1.894531 -28.007812 1.359375 -29.296875 1.359375 -30.796875 C 1.359375 -31.703125 1.601562 -32.566406 2.09375 -33.390625 C 2.582031 -34.222656 3.28125 -34.867188 4.1875 -35.328125 L 27.8125 -47.59375 C 28.625 -48.019531 29.472656 -48.234375 30.359375 -48.234375 C 31.679688 -48.234375 32.863281 -47.742188 33.90625 -46.765625 C 35.007812 -45.765625 35.5625 -44.484375 35.5625 -42.921875 C 35.5625 -41.984375 35.34375 -41.109375 34.90625 -40.296875 C 34.46875 -39.484375 33.8125 -38.847656 32.9375 -38.390625 L 17.875 -30.59375 L 32.734375 -22.65625 C 33.617188 -22.269531 34.300781 -21.648438 34.78125 -20.796875 C 35.269531 -19.953125 35.515625 -19.03125 35.515625 -18.03125 C 35.515625 -16.46875 34.960938 -15.179688 33.859375 -14.171875 C 32.890625 -13.203125 31.738281 -12.71875 30.40625 -12.71875 Z M 30.40625 -12.71875 "/></g></g></g><g fill="#004aad" fill-opacity="1"><g transform="translate(36.315146, 65.71212)"><g><path d="M 7.59375 0 C 5.8125 0 4.253906 -0.679688 2.921875 -2.046875 C 1.691406 -3.378906 1.078125 -4.890625 1.078125 -6.578125 C 1.078125 -7.359375 1.1875 -8.023438 1.40625 -8.578125 L 17.546875 -59.140625 C 17.992188 -60.503906 18.800781 -61.597656 19.96875 -62.421875 C 21.144531 -63.253906 22.429688 -63.671875 23.828125 -63.671875 C 25.710938 -63.671875 27.285156 -62.957031 28.546875 -61.53125 C 29.753906 -60.132812 30.359375 -58.460938 30.359375 -56.515625 C 30.359375 -55.867188 30.242188 -55.15625 30.015625 -54.375 L 13.890625 -4.578125 C 13.429688 -3.210938 12.617188 -2.109375 11.453125 -1.265625 C 10.285156 -0.421875 9 0 7.59375 0 Z M 7.59375 0 "/></g></g></g><g fill="#004aad" fill-opacity="1"><g transform="translate(65.242601, 65.71212)"><g><path d="M 6.671875 -12.765625 C 5.367188 -12.765625 4.203125 -13.234375 3.171875 -14.171875 C 2.097656 -15.210938 1.5625 -16.5 1.5625 -18.03125 C 1.5625 -19.03125 1.8125 -19.941406 2.3125 -20.765625 C 2.8125 -21.597656 3.503906 -22.226562 4.390625 -22.65625 L 19.203125 -30.59375 L 4.1875 -38.390625 C 3.34375 -38.847656 2.675781 -39.488281 2.1875 -40.3125 C 1.707031 -41.144531 1.46875 -42.03125 1.46875 -42.96875 C 1.46875 -44.4375 2.035156 -45.703125 3.171875 -46.765625 C 4.203125 -47.742188 5.382812 -48.234375 6.71875 -48.234375 C 7.59375 -48.234375 8.4375 -48.019531 9.25 -47.59375 L 32.9375 -35.328125 C 33.8125 -34.804688 34.5 -34.140625 35 -33.328125 C 35.507812 -32.515625 35.765625 -31.65625 35.765625 -30.75 C 35.765625 -30.0625 35.59375 -29.351562 35.25 -28.625 C 34.90625 -27.894531 34.472656 -27.285156 33.953125 -26.796875 C 33.472656 -26.304688 32.90625 -25.96875 32.25 -25.78125 L 9.15625 -13.34375 C 8.476562 -12.957031 7.648438 -12.765625 6.671875 -12.765625 Z M 6.671875 -12.765625 "/></g></g></g></g></g></svg>