<svg xmlns="http://www.w3.org/2000/svg" xmlns:xlink="http://www.w3.org/1999/xlink" width="429" zoomAndPan="magnify" viewBox="0 0 321.75 124.499996" height="166" preserveAspectRatio="xMidYMid meet" version="1.0"><defs><g/><clipPath id="d226af5c1b"><path d="M 11.78125 30.34375 L 74 30.34375 L 74 92.941406 L 11.78125 92.941406 Z M 11.78125 30.34375 " clip-rule="nonzero"/></clipPath><clipPath id="88c38c3e93"><path d="M 48.742188 34.519531 L 48.761719 34.574219 C 52.457031 44.359375 60.167969 52.09375 69.941406 55.816406 C 72.371094 56.742188 73.976562 59.074219 73.976562 61.675781 C 73.976562 64.273438 72.371094 66.605469 69.941406 67.53125 C 60.167969 71.253906 52.457031 78.988281 48.761719 88.773438 L 48.742188 88.828125 C 47.828125 91.253906 45.503906 92.855469 42.914062 92.855469 C 40.320312 92.855469 38 91.253906 37.085938 88.828125 L 37.0625 88.773438 C 33.371094 78.988281 25.660156 71.253906 15.886719 67.53125 C 13.457031 66.605469 11.851562 64.273438 11.851562 61.675781 C 11.851562 59.074219 13.457031 56.742188 15.886719 55.816406 C 25.660156 52.09375 33.371094 44.359375 37.0625 34.574219 L 37.085938 34.519531 C 38 32.097656 40.320312 30.492188 42.914062 30.492188 C 45.503906 30.492188 47.828125 32.097656 48.742188 34.519531 Z M 48.742188 34.519531 " clip-rule="nonzero"/></clipPath><clipPath id="073bcecd89"><path d="M 0.78125 0.359375 L 63 0.359375 L 63 62.941406 L 0.78125 62.941406 Z M 0.78125 0.359375 " clip-rule="nonzero"/></clipPath><clipPath id="33cb33e877"><path d="M 37.742188 4.519531 L 37.761719 4.574219 C 41.457031 14.359375 49.167969 22.09375 58.941406 25.816406 C 61.371094 26.742188 62.976562 29.074219 62.976562 31.675781 C 62.976562 34.273438 61.371094 36.605469 58.941406 37.53125 C 49.167969 41.253906 41.457031 48.988281 37.761719 58.773438 L 37.742188 58.828125 C 36.828125 61.253906 34.503906 62.855469 31.914062 62.855469 C 29.320312 62.855469 27 61.253906 26.085938 58.828125 L 26.0625 58.773438 C 22.371094 48.988281 14.660156 41.253906 4.886719 37.53125 C 2.457031 36.605469 0.851562 34.273438 0.851562 31.675781 C 0.851562 29.074219 2.457031 26.742188 4.886719 25.816406 C 14.660156 22.09375 22.371094 14.359375 26.0625 4.574219 L 26.085938 4.519531 C 27 2.097656 29.320312 0.492188 31.914062 0.492188 C 34.503906 0.492188 36.828125 2.097656 37.742188 4.519531 Z M 37.742188 4.519531 " clip-rule="nonzero"/></clipPath><clipPath id="560e22a8c4"><rect x="0" width="63" y="0" height="63"/></clipPath></defs><g fill="#004aad" fill-opacity="1"><g transform="translate(85.307641, 77.317139)"><g><path d="M 18.171875 0.375 C 15.929688 0.375 13.789062 -0.0507812 11.75 -0.90625 C 9.71875 -1.769531 7.9375 -2.957031 6.40625 -4.46875 C 4.863281 -6.007812 3.65625 -7.78125 2.78125 -9.78125 C 1.914062 -11.78125 1.484375 -13.894531 1.484375 -16.125 C 1.484375 -18.382812 1.914062 -20.523438 2.78125 -22.546875 C 3.65625 -24.578125 4.863281 -26.359375 6.40625 -27.890625 C 7.9375 -29.398438 9.710938 -30.578125 11.734375 -31.421875 C 13.765625 -32.273438 15.910156 -32.703125 18.171875 -32.703125 C 20.378906 -32.703125 22.488281 -32.285156 24.5 -31.453125 C 26.507812 -30.617188 28.285156 -29.453125 29.828125 -27.953125 C 31.335938 -26.441406 32.53125 -24.6875 33.40625 -22.6875 C 34.289062 -20.6875 34.757812 -18.582031 34.8125 -16.375 C 34.8125 -15.082031 34.394531 -14.046875 33.5625 -13.265625 C 32.738281 -12.484375 31.671875 -12.09375 30.359375 -12.09375 L 11.5625 -12.09375 C 12.300781 -10.925781 13.242188 -10 14.390625 -9.3125 C 15.546875 -8.632812 16.804688 -8.296875 18.171875 -8.296875 C 19.003906 -8.296875 19.691406 -8.363281 20.234375 -8.5 C 20.773438 -8.632812 21.269531 -8.835938 21.71875 -9.109375 C 22.582031 -9.660156 23.453125 -9.9375 24.328125 -9.9375 C 25.546875 -9.9375 26.597656 -9.472656 27.484375 -8.546875 C 28.316406 -7.640625 28.734375 -6.550781 28.734375 -5.28125 C 28.734375 -3.632812 27.863281 -2.316406 26.125 -1.328125 C 24.132812 -0.191406 21.484375 0.375 18.171875 0.375 Z M 11.28125 -19.625 L 25.546875 -19.625 C 24.921875 -21 23.96875 -22.085938 22.6875 -22.890625 C 21.414062 -23.691406 19.960938 -24.09375 18.328125 -24.09375 C 16.703125 -24.09375 15.28125 -23.6875 14.0625 -22.875 C 12.84375 -22.0625 11.914062 -20.976562 11.28125 -19.625 Z M 11.28125 -19.625 "/></g></g></g><g fill="#004aad" fill-opacity="1"><g transform="translate(119.865644, 77.317139)"><g><path d="M 18.03125 0.375 C 15.789062 0.375 13.671875 -0.046875 11.671875 -0.890625 C 9.671875 -1.742188 7.90625 -2.9375 6.375 -4.46875 C 4.832031 -5.988281 3.628906 -7.753906 2.765625 -9.765625 C 1.910156 -11.773438 1.484375 -13.894531 1.484375 -16.125 C 1.484375 -18.363281 1.910156 -20.492188 2.765625 -22.515625 C 3.628906 -24.535156 4.832031 -26.316406 6.375 -27.859375 C 7.90625 -29.390625 9.671875 -30.578125 11.671875 -31.421875 C 13.671875 -32.273438 15.789062 -32.703125 18.03125 -32.703125 C 19.925781 -32.703125 21.46875 -32.460938 22.65625 -31.984375 C 23.84375 -31.515625 24.804688 -30.796875 25.546875 -29.828125 L 25.546875 -40.0625 C 25.546875 -41.363281 25.976562 -42.476562 26.84375 -43.40625 C 27.695312 -44.289062 28.757812 -44.734375 30.03125 -44.734375 C 30.632812 -44.734375 31.21875 -44.613281 31.78125 -44.375 C 32.351562 -44.132812 32.84375 -43.8125 33.25 -43.40625 C 33.65625 -42.976562 33.972656 -42.476562 34.203125 -41.90625 C 34.441406 -41.332031 34.5625 -40.71875 34.5625 -40.0625 L 34.5625 -16.125 C 34.5625 -13.894531 34.140625 -11.78125 33.296875 -9.78125 C 32.453125 -7.78125 31.257812 -6.007812 29.71875 -4.46875 C 28.207031 -2.957031 26.441406 -1.769531 24.421875 -0.90625 C 22.398438 -0.0507812 20.269531 0.375 18.03125 0.375 Z M 18.03125 -8.671875 C 19.039062 -8.671875 20.007812 -8.863281 20.9375 -9.25 C 21.863281 -9.632812 22.664062 -10.164062 23.34375 -10.84375 C 24.050781 -11.539062 24.59375 -12.34375 24.96875 -13.25 C 25.351562 -14.15625 25.546875 -15.113281 25.546875 -16.125 C 25.546875 -17.144531 25.351562 -18.109375 24.96875 -19.015625 C 24.59375 -19.921875 24.050781 -20.722656 23.34375 -21.421875 C 22.664062 -22.097656 21.863281 -22.628906 20.9375 -23.015625 C 20.007812 -23.398438 19.039062 -23.59375 18.03125 -23.59375 C 17.03125 -23.59375 16.070312 -23.398438 15.15625 -23.015625 C 14.25 -22.628906 13.457031 -22.097656 12.78125 -21.421875 C 12.070312 -20.722656 11.519531 -19.921875 11.125 -19.015625 C 10.738281 -18.109375 10.546875 -17.144531 10.546875 -16.125 C 10.546875 -15.113281 10.738281 -14.15625 11.125 -13.25 C 11.519531 -12.34375 12.070312 -11.539062 12.78125 -10.84375 C 13.457031 -10.164062 14.25 -9.632812 15.15625 -9.25 C 16.070312 -8.863281 17.03125 -8.671875 18.03125 -8.671875 Z M 18.03125 -8.671875 "/></g></g></g><g fill="#004aad" fill-opacity="1"><g transform="translate(155.711361, 77.317139)"><g><path d="M 19.140625 0.375 C 16.972656 0.375 14.90625 -0.0390625 12.9375 -0.875 C 10.976562 -1.71875 9.253906 -2.882812 7.765625 -4.375 C 6.273438 -5.863281 5.109375 -7.578125 4.265625 -9.515625 C 3.429688 -11.460938 3.015625 -13.519531 3.015625 -15.6875 L 3.015625 -28.234375 C 3.015625 -28.835938 3.132812 -29.410156 3.375 -29.953125 C 3.613281 -30.492188 3.9375 -30.96875 4.34375 -31.375 C 4.75 -31.78125 5.226562 -32.101562 5.78125 -32.34375 C 6.332031 -32.582031 6.898438 -32.703125 7.484375 -32.703125 C 8.097656 -32.703125 8.679688 -32.582031 9.234375 -32.34375 C 9.785156 -32.101562 10.273438 -31.78125 10.703125 -31.375 C 11.109375 -30.96875 11.429688 -30.492188 11.671875 -29.953125 C 11.910156 -29.410156 12.03125 -28.835938 12.03125 -28.234375 L 12.03125 -15.59375 C 12.03125 -13.5625 12.71875 -11.910156 14.09375 -10.640625 C 14.75 -10.003906 15.503906 -9.507812 16.359375 -9.15625 C 17.222656 -8.8125 18.148438 -8.640625 19.140625 -8.640625 C 21.109375 -8.640625 22.671875 -9.316406 23.828125 -10.671875 C 24.953125 -11.984375 25.515625 -13.65625 25.515625 -15.6875 L 25.515625 -28.234375 C 25.515625 -28.816406 25.640625 -29.382812 25.890625 -29.9375 C 26.140625 -30.488281 26.476562 -30.96875 26.90625 -31.375 C 27.3125 -31.78125 27.796875 -32.101562 28.359375 -32.34375 C 28.929688 -32.582031 29.519531 -32.703125 30.125 -32.703125 C 30.738281 -32.703125 31.316406 -32.582031 31.859375 -32.34375 C 32.398438 -32.101562 32.875 -31.78125 33.28125 -31.375 C 34.113281 -30.539062 34.53125 -29.492188 34.53125 -28.234375 L 34.53125 -15.6875 C 34.53125 -13.5 34.148438 -11.429688 33.390625 -9.484375 C 32.640625 -7.546875 31.5625 -5.84375 30.15625 -4.375 C 28.757812 -2.882812 27.117188 -1.71875 25.234375 -0.875 C 23.347656 -0.0390625 21.316406 0.375 19.140625 0.375 Z M 19.140625 0.375 "/></g></g></g><g fill="#004aad" fill-opacity="1"><g transform="translate(191.523189, 77.317139)"><g><path d="M 19.546875 0.40625 C 17.316406 0.40625 15.191406 -0.0195312 13.171875 -0.875 C 11.148438 -1.738281 9.378906 -2.925781 7.859375 -4.4375 C 6.347656 -5.945312 5.160156 -7.710938 4.296875 -9.734375 C 3.441406 -11.765625 3.015625 -13.894531 3.015625 -16.125 L 3.015625 -38.0625 C 3.015625 -39.320312 3.46875 -40.40625 4.375 -41.3125 C 4.78125 -41.71875 5.257812 -42.039062 5.8125 -42.28125 C 6.363281 -42.519531 6.945312 -42.640625 7.5625 -42.640625 C 8.164062 -42.640625 8.753906 -42.519531 9.328125 -42.28125 C 9.910156 -42.039062 10.414062 -41.71875 10.84375 -41.3125 C 11.269531 -40.882812 11.613281 -40.382812 11.875 -39.8125 C 12.132812 -39.25 12.265625 -38.664062 12.265625 -38.0625 L 12.265625 -33.71875 L 22.671875 -33.71875 C 23.285156 -33.71875 23.867188 -33.597656 24.421875 -33.359375 C 24.972656 -33.128906 25.460938 -32.8125 25.890625 -32.40625 C 26.296875 -31.96875 26.617188 -31.472656 26.859375 -30.921875 C 27.097656 -30.367188 27.21875 -29.785156 27.21875 -29.171875 C 27.21875 -28.003906 26.773438 -26.988281 25.890625 -26.125 C 24.984375 -25.269531 23.910156 -24.84375 22.671875 -24.84375 L 12.265625 -24.84375 L 12.265625 -16.0625 C 12.265625 -13.9375 12.96875 -12.175781 14.375 -10.78125 C 15.769531 -9.332031 17.492188 -8.609375 19.546875 -8.609375 C 21.492188 -8.609375 23.054688 -9.140625 24.234375 -10.203125 C 25.316406 -11.210938 26.457031 -11.71875 27.65625 -11.71875 C 28.15625 -11.71875 28.65625 -11.609375 29.15625 -11.390625 C 29.664062 -11.179688 30.101562 -10.882812 30.46875 -10.5 C 31.300781 -9.644531 31.71875 -8.65625 31.71875 -7.53125 C 31.71875 -6.820312 31.578125 -6.128906 31.296875 -5.453125 C 31.015625 -4.773438 30.613281 -4.175781 30.09375 -3.65625 C 28.695312 -2.300781 27.101562 -1.285156 25.3125 -0.609375 C 23.53125 0.0664062 21.609375 0.40625 19.546875 0.40625 Z M 19.546875 0.40625 "/></g></g></g><g fill="#004aad" fill-opacity="1"><g transform="translate(222.25194, 77.317139)"><g><path d="M 8.03125 -35.453125 C 6.71875 -35.453125 5.585938 -35.925781 4.640625 -36.875 C 3.671875 -37.84375 3.1875 -38.972656 3.1875 -40.265625 C 3.1875 -41.578125 3.671875 -42.71875 4.640625 -43.6875 C 5.566406 -44.613281 6.695312 -45.078125 8.03125 -45.078125 C 9.382812 -45.078125 10.523438 -44.613281 11.453125 -43.6875 C 12.398438 -42.738281 12.875 -41.597656 12.875 -40.265625 C 12.875 -38.953125 12.398438 -37.820312 11.453125 -36.875 C 10.503906 -35.925781 9.363281 -35.453125 8.03125 -35.453125 Z M 8.03125 0.375 C 7.414062 0.375 6.832031 0.253906 6.28125 0.015625 C 5.726562 -0.222656 5.25 -0.546875 4.84375 -0.953125 C 4.414062 -1.359375 4.078125 -1.835938 3.828125 -2.390625 C 3.578125 -2.941406 3.453125 -3.507812 3.453125 -4.09375 L 3.453125 -28.234375 C 3.453125 -28.816406 3.578125 -29.382812 3.828125 -29.9375 C 4.078125 -30.488281 4.414062 -30.96875 4.84375 -31.375 C 5.25 -31.78125 5.738281 -32.101562 6.3125 -32.34375 C 6.894531 -32.582031 7.488281 -32.703125 8.09375 -32.703125 C 8.6875 -32.703125 9.257812 -32.582031 9.8125 -32.34375 C 10.363281 -32.101562 10.84375 -31.78125 11.25 -31.375 C 12.082031 -30.539062 12.5 -29.492188 12.5 -28.234375 L 12.5 -4.09375 C 12.5 -3.507812 12.378906 -2.941406 12.140625 -2.390625 C 11.910156 -1.835938 11.59375 -1.359375 11.1875 -0.953125 C 10.78125 -0.546875 10.304688 -0.222656 9.765625 0.015625 C 9.222656 0.253906 8.644531 0.375 8.03125 0.375 Z M 8.03125 0.375 "/></g></g></g><g fill="#004aad" fill-opacity="1"><g transform="translate(236.57929, 77.317139)"><g><path d="M 16.90625 -24.296875 L 18.9375 -24.296875 C 19.550781 -24.296875 20.140625 -24.175781 20.703125 -23.9375 C 21.265625 -23.707031 21.75 -23.390625 22.15625 -22.984375 C 22.570312 -22.578125 22.894531 -22.097656 23.125 -21.546875 C 23.363281 -21.003906 23.484375 -20.429688 23.484375 -19.828125 C 23.484375 -19.210938 23.363281 -18.625 23.125 -18.0625 C 22.894531 -17.5 22.570312 -17.015625 22.15625 -16.609375 C 21.75 -16.203125 21.265625 -15.878906 20.703125 -15.640625 C 20.140625 -15.398438 19.550781 -15.28125 18.9375 -15.28125 L 16.90625 -15.28125 L 16.90625 -0.953125 C 16.882812 0.609375 16.570312 2.082031 15.96875 3.46875 C 15.375 4.863281 14.554688 6.09375 13.515625 7.15625 C 12.453125 8.257812 11.207031 9.113281 9.78125 9.71875 C 8.363281 10.332031 6.851562 10.640625 5.25 10.640625 C 3.988281 10.640625 2.925781 10.210938 2.0625 9.359375 C 1.1875 8.472656 0.75 7.382812 0.75 6.09375 C 0.75 5.507812 0.863281 4.941406 1.09375 4.390625 C 1.332031 3.835938 1.65625 3.359375 2.0625 2.953125 C 2.945312 2.066406 4.007812 1.625 5.25 1.625 C 5.925781 1.625 6.519531 1.375 7.03125 0.875 C 7.539062 0.382812 7.816406 -0.195312 7.859375 -0.875 L 7.859375 -15.28125 L 6.875 -15.28125 C 5.59375 -15.28125 4.53125 -15.734375 3.6875 -16.640625 C 3.28125 -17.046875 2.957031 -17.523438 2.71875 -18.078125 C 2.488281 -18.628906 2.375 -19.210938 2.375 -19.828125 C 2.375 -20.429688 2.488281 -21.003906 2.71875 -21.546875 C 2.957031 -22.097656 3.28125 -22.578125 3.6875 -22.984375 C 4.570312 -23.859375 5.632812 -24.296875 6.875 -24.296875 L 7.859375 -24.296875 L 7.859375 -33.21875 C 7.878906 -34.75 8.191406 -36.21875 8.796875 -37.625 C 9.410156 -39.039062 10.265625 -40.28125 11.359375 -41.34375 C 12.441406 -42.40625 13.679688 -43.234375 15.078125 -43.828125 C 16.484375 -44.429688 17.972656 -44.734375 19.546875 -44.734375 C 20.160156 -44.734375 20.75 -44.613281 21.3125 -44.375 C 21.875 -44.132812 22.375 -43.8125 22.8125 -43.40625 C 23.21875 -43 23.535156 -42.507812 23.765625 -41.9375 C 24.003906 -41.363281 24.125 -40.769531 24.125 -40.15625 C 24.125 -39.570312 24.003906 -39.003906 23.765625 -38.453125 C 23.535156 -37.898438 23.21875 -37.414062 22.8125 -37 C 22.375 -36.59375 21.875 -36.269531 21.3125 -36.03125 C 20.75 -35.800781 20.160156 -35.6875 19.546875 -35.6875 L 19.453125 -35.6875 C 18.773438 -35.644531 18.191406 -35.382812 17.703125 -34.90625 C 17.222656 -34.425781 16.957031 -33.847656 16.90625 -33.171875 Z M 16.90625 -24.296875 "/></g></g></g><g fill="#004aad" fill-opacity="1"><g transform="translate(260.462828, 77.317139)"><g><path d="M 18.03125 0.375 C 15.789062 0.375 13.671875 -0.046875 11.671875 -0.890625 C 9.671875 -1.742188 7.90625 -2.9375 6.375 -4.46875 C 4.832031 -5.988281 3.628906 -7.753906 2.765625 -9.765625 C 1.910156 -11.773438 1.484375 -13.894531 1.484375 -16.125 C 1.484375 -18.363281 1.910156 -20.492188 2.765625 -22.515625 C 3.628906 -24.535156 4.832031 -26.316406 6.375 -27.859375 C 7.90625 -29.390625 9.671875 -30.578125 11.671875 -31.421875 C 13.671875 -32.273438 15.789062 -32.703125 18.03125 -32.703125 C 20.238281 -32.703125 22.34375 -32.285156 24.34375 -31.453125 C 26.34375 -30.617188 28.101562 -29.441406 29.625 -27.921875 C 31.132812 -26.429688 32.320312 -24.691406 33.1875 -22.703125 C 34.0625 -20.710938 34.519531 -18.613281 34.5625 -16.40625 L 34.5625 -4.234375 C 34.5625 -2.941406 34.125 -1.859375 33.25 -0.984375 C 32.34375 -0.078125 31.242188 0.375 29.953125 0.375 C 28.285156 0.375 27.019531 -0.335938 26.15625 -1.765625 C 23.632812 -0.335938 20.925781 0.375 18.03125 0.375 Z M 18.03125 -8.671875 C 19.039062 -8.671875 20.007812 -8.863281 20.9375 -9.25 C 21.863281 -9.632812 22.664062 -10.164062 23.34375 -10.84375 C 24.050781 -11.539062 24.59375 -12.34375 24.96875 -13.25 C 25.351562 -14.15625 25.546875 -15.113281 25.546875 -16.125 C 25.546875 -17.144531 25.351562 -18.109375 24.96875 -19.015625 C 24.59375 -19.921875 24.050781 -20.722656 23.34375 -21.421875 C 22.664062 -22.097656 21.863281 -22.628906 20.9375 -23.015625 C 20.007812 -23.398438 19.039062 -23.59375 18.03125 -23.59375 C 17.03125 -23.59375 16.070312 -23.398438 15.15625 -23.015625 C 14.25 -22.628906 13.457031 -22.097656 12.78125 -21.421875 C 12.070312 -20.722656 11.519531 -19.921875 11.125 -19.015625 C 10.738281 -18.109375 10.546875 -17.144531 10.546875 -16.125 C 10.546875 -15.113281 10.738281 -14.15625 11.125 -13.25 C 11.519531 -12.34375 12.070312 -11.539062 12.78125 -10.84375 C 13.457031 -10.164062 14.25 -9.632812 15.15625 -9.25 C 16.070312 -8.863281 17.03125 -8.671875 18.03125 -8.671875 Z M 18.03125 -8.671875 "/></g></g></g><g clip-path="url(#d226af5c1b)"><g clip-path="url(#88c38c3e93)"><g transform="matrix(1, 0, 0, 1, 11, 30)"><g clip-path="url(#560e22a8c4)"><g clip-path="url(#073bcecd89)"><g clip-path="url(#33cb33e877)"><rect x="-81.785" width="463.32" fill="#004aad" height="179.279994" y="-57.389999" fill-opacity="1"/></g></g></g></g></g></g><g fill="#f5f2f2" fill-opacity="1"><g transform="translate(30.429933, 68.678917)"><g><path d="M 7.296875 -3.046875 C 7.171875 -3.054688 7.054688 -3.070312 6.953125 -3.09375 C 6.859375 -3.125 6.773438 -3.160156 6.703125 -3.203125 L 1.15625 -6.1875 C 1.113281 -6.195312 1.066406 -6.210938 1.015625 -6.234375 C 0.960938 -6.265625 0.90625 -6.300781 0.84375 -6.34375 L 0.734375 -6.421875 C 0.703125 -6.453125 0.695312 -6.46875 0.71875 -6.46875 C 0.457031 -6.71875 0.328125 -7.023438 0.328125 -7.390625 C 0.328125 -7.609375 0.382812 -7.816406 0.5 -8.015625 C 0.613281 -8.210938 0.78125 -8.363281 1 -8.46875 L 6.671875 -11.421875 C 6.867188 -11.523438 7.070312 -11.578125 7.28125 -11.578125 C 7.601562 -11.578125 7.890625 -11.457031 8.140625 -11.21875 C 8.398438 -10.976562 8.53125 -10.671875 8.53125 -10.296875 C 8.53125 -10.066406 8.476562 -9.851562 8.375 -9.65625 C 8.269531 -9.46875 8.113281 -9.316406 7.90625 -9.203125 L 4.296875 -7.34375 L 7.859375 -5.4375 C 8.066406 -5.34375 8.226562 -5.191406 8.34375 -4.984375 C 8.457031 -4.785156 8.515625 -4.566406 8.515625 -4.328125 C 8.515625 -3.953125 8.382812 -3.644531 8.125 -3.40625 C 7.882812 -3.164062 7.609375 -3.046875 7.296875 -3.046875 Z M 7.296875 -3.046875 "/></g></g></g><g fill="#f5f2f2" fill-opacity="1"><g transform="translate(38.925314, 68.678917)"><g><path d="M 1.828125 0 C 1.398438 0 1.023438 -0.160156 0.703125 -0.484375 C 0.398438 -0.804688 0.25 -1.171875 0.25 -1.578125 C 0.25 -1.765625 0.28125 -1.925781 0.34375 -2.0625 L 4.203125 -14.1875 C 4.316406 -14.519531 4.515625 -14.785156 4.796875 -14.984375 C 5.078125 -15.179688 5.382812 -15.28125 5.71875 -15.28125 C 6.164062 -15.28125 6.539062 -15.109375 6.84375 -14.765625 C 7.132812 -14.429688 7.28125 -14.03125 7.28125 -13.5625 C 7.28125 -13.40625 7.253906 -13.234375 7.203125 -13.046875 L 3.328125 -1.09375 C 3.222656 -0.769531 3.03125 -0.503906 2.75 -0.296875 C 2.46875 -0.0976562 2.160156 0 1.828125 0 Z M 1.828125 0 "/></g></g></g><g fill="#f5f2f2" fill-opacity="1"><g transform="translate(45.866067, 68.678917)"><g><path d="M 1.59375 -3.0625 C 1.289062 -3.0625 1.015625 -3.175781 0.765625 -3.40625 C 0.503906 -3.65625 0.375 -3.960938 0.375 -4.328125 C 0.375 -4.566406 0.429688 -4.785156 0.546875 -4.984375 C 0.671875 -5.179688 0.835938 -5.332031 1.046875 -5.4375 L 4.609375 -7.34375 L 1 -9.203125 C 0.800781 -9.316406 0.640625 -9.472656 0.515625 -9.671875 C 0.398438 -9.867188 0.34375 -10.082031 0.34375 -10.3125 C 0.34375 -10.65625 0.484375 -10.957031 0.765625 -11.21875 C 1.015625 -11.457031 1.296875 -11.578125 1.609375 -11.578125 C 1.816406 -11.578125 2.019531 -11.523438 2.21875 -11.421875 L 7.90625 -8.46875 C 8.113281 -8.34375 8.273438 -8.179688 8.390625 -7.984375 C 8.515625 -7.796875 8.578125 -7.59375 8.578125 -7.375 C 8.578125 -7.207031 8.535156 -7.035156 8.453125 -6.859375 C 8.367188 -6.691406 8.265625 -6.546875 8.140625 -6.421875 C 8.023438 -6.304688 7.890625 -6.226562 7.734375 -6.1875 L 2.203125 -3.203125 C 2.035156 -3.109375 1.832031 -3.0625 1.59375 -3.0625 Z M 1.59375 -3.0625 "/></g></g></g></svg>